<svg width="26" height="26" viewBox="0 0 32 32" fill="none" xmlns="http://www.w3.org/2000/svg">
  <!-- Círculo con borde punteado -->
  <circle cx="16" cy="16" r="14.5" stroke="#0056F6" stroke-width="1.5" stroke-linecap="square" stroke-linejoin="round" stroke-dasharray="5.67 5.67"/>

  <!-- Campana centrada -->
  <g transform="translate(16,16) scale(1.2) translate(-8,-8)">
    <path d="M1.58789 4.83358C1.91921 3.67257 2.55737 2.64095 3.40907 1.83203M12.5897 1.83203C13.4414 2.64095 14.0795 3.67257 14.4109 4.83358M10.5976 12.3333C10.1186 13.4209 9.135 14.1667 7.99937 14.1667C6.86374 14.1667 5.88012 13.4209 5.40111 12.3333M3.89832 12.1667H12.1004C12.9215 12.1667 13.5475 11.4317 13.4167 10.621L12.6363 5.78231C12.2692 3.50641 10.3047 1.83334 7.99937 1.83334C5.69406 1.83334 3.72952 3.50641 3.36244 5.78231L2.582 10.621C2.45126 11.4317 3.07723 12.1667 3.89832 12.1667Z"
      stroke="#0056F6" stroke-linecap="round"/>
  </g>
</svg>
