<svg width="16" height="16" viewBox="0 0 16 16" fill="none" xmlns="http://www.w3.org/2000/svg">
<path d="M10.166 3.16683H11.4993C12.2357 3.16683 12.8327 3.76378 12.8327 4.50016V12.8335C12.8327 13.5699 12.2357 14.1668 11.4993 14.1668H4.49935C3.76297 14.1668 3.16602 13.5699 3.16602 12.8335V4.50016C3.16602 3.76378 3.76297 3.16683 4.49935 3.16683H5.83268M10.166 3.16683V4.16683C10.166 4.53502 9.86754 4.8335 9.49935 4.8335H6.49935C6.13116 4.8335 5.83268 4.53502 5.83268 4.16683V3.16683M10.166 3.16683C10.166 2.43045 9.56906 1.8335 8.83268 1.8335H7.16602C6.42964 1.8335 5.83268 2.43045 5.83268 3.16683" stroke="#7D7D7D" stroke-linecap="square" stroke-linejoin="round"/>
</svg>
