<svg width="14" height="13" viewBox="0 0 14 13" fill="none" xmlns="http://www.w3.org/2000/svg">
<path fill-rule="evenodd" clip-rule="evenodd" d="M5.42347 1.17175C6.1341 -0.0233954 7.86447 -0.0233979 8.5751 1.17175L13.5644 9.56288C14.2911 10.7849 13.4104 12.3332 11.9886 12.3332H2.00997C0.588192 12.3332 -0.292482 10.7849 0.434155 9.56288L5.42347 1.17175ZM6.99935 4.33317C7.27549 4.33317 7.49935 4.55703 7.49935 4.83317V7.49984C7.49935 7.77598 7.27549 7.99984 6.99935 7.99984C6.72321 7.99984 6.49935 7.77598 6.49935 7.49984V4.83317C6.49935 4.55703 6.72321 4.33317 6.99935 4.33317ZM7.66602 9.33317C7.66602 9.70136 7.36754 9.99984 6.99935 9.99984C6.63116 9.99984 6.33268 9.70136 6.33268 9.33317C6.33268 8.96498 6.63116 8.6665 6.99935 8.6665C7.36754 8.6665 7.66602 8.96498 7.66602 9.33317Z" fill="#9A3109"/>
</svg>
