<svg width="18" height="11" viewBox="0 0 18 11" fill="none" xmlns="http://www.w3.org/2000/svg">
<path fill-rule="evenodd" clip-rule="evenodd" d="M12.6253 10.4381C15.5216 10.4381 17.8696 8.12889 17.8696 5.28033C17.8696 2.43177 15.5216 0.122559 12.6253 0.122559C11.3273 0.122559 10.1393 0.586382 9.22359 1.35471C8.30784 0.58642 7.11997 0.122623 5.82195 0.122623C2.92563 0.122623 0.577698 2.43184 0.577698 5.28039C0.577698 8.12895 2.92563 10.4382 5.82195 10.4382C7.12 10.4382 8.30791 9.97434 9.22367 9.20602C10.1394 9.9743 11.3273 10.4381 12.6253 10.4381Z" fill="#ED0006"/>
<path d="M12.6249 0.122559C15.5211 0.122559 17.8688 2.43145 17.8691 5.27979C17.8691 8.12834 15.5213 10.438 12.6249 10.438C11.3265 10.4379 10.1394 9.97243 9.22357 9.20361C10.3505 8.25759 11.0663 6.8512 11.0663 5.27979C11.0662 3.70834 10.3507 2.30189 9.22357 1.35596C10.1393 0.587376 11.3267 0.122638 12.6249 0.122559Z" fill="#F9A000"/>
<path d="M9.2229 1.35547C10.3505 2.3015 11.0667 3.70834 11.0667 5.28027C11.0666 6.85176 10.3499 8.2571 9.2229 9.20312C8.09637 8.25711 7.38111 6.85135 7.3811 5.28027C7.3811 3.70875 8.09582 2.30149 9.2229 1.35547Z" fill="#FF5E00"/>
</svg>
