<svg width="18" height="18" viewBox="0 0 18 18" fill="none" xmlns="http://www.w3.org/2000/svg">
<path d="M10.7471 10.75V13.25H13.2471M14.7471 10.75H17.2471M17.2471 14.75H14.7471V17.25M10.7471 16.75V17.25M2.74707 17.25H5.24707C6.35164 17.25 7.24707 16.3546 7.24707 15.25V12.75C7.24707 11.6454 6.35164 10.75 5.24707 10.75H2.74707C1.6425 10.75 0.74707 11.6454 0.74707 12.75V15.25C0.74707 16.3546 1.6425 17.25 2.74707 17.25ZM12.7471 7.25H15.2471C16.3516 7.25 17.2471 6.35457 17.2471 5.25V2.75C17.2471 1.64543 16.3516 0.75 15.2471 0.75H12.7471C11.6425 0.75 10.7471 1.64543 10.7471 2.75V5.25C10.7471 6.35457 11.6425 7.25 12.7471 7.25ZM2.74707 7.25H5.24707C6.35164 7.25 7.24707 6.35457 7.24707 5.25V2.75C7.24707 1.64543 6.35164 0.75 5.24707 0.75H2.74707C1.6425 0.75 0.74707 1.64543 0.74707 2.75V5.25C0.74707 6.35457 1.6425 7.25 2.74707 7.25Z" stroke="#0056F6" stroke-width="1.5" stroke-linecap="round" stroke-linejoin="round"/>
</svg>
